<?xml version="1.0" encoding="UTF-8" standalone="no"?>
<svg width="151px" height="40px" viewBox="0 0 151 40" version="1.1" xmlns="http://www.w3.org/2000/svg" xmlns:xlink="http://www.w3.org/1999/xlink">
    <!-- Generator: Sketch 3.7.2 (28276) - http://www.bohemiancoding.com/sketch -->
    <title>GP Logo</title>
    <desc>Created with Sketch.</desc>
    <defs>
        <polygon id="path-1" points="0 0.0616895547 150.880483 0.0616895547 150.880483 39.9001248 0 39.9001248"></polygon>
        <polygon id="path-3" points="0 0.0616895547 150.880483 0.0616895547 150.880483 39.9001248 0 39.9001248"></polygon>
    </defs>
    <g id="Channel" stroke="none" stroke-width="1" fill="none" fill-rule="evenodd">
        <g id="ATV03_Discover" transform="translate(-90.000000, -60.000000)">
            <g id="Global-Header">
                <g id="Global-Nav">
                    <g id="GP-Logo" transform="translate(90.000000, 60.000000)">
                        <path d="M32.1304669,15.5802347 L32.1304669,13.6446542 L32.1304669,11.4713708 C32.1304669,10.7990112 31.5803546,10.2488989 30.907995,10.2488989 L20.9833342,10.2488989 C20.0486525,10.2488989 19.2911161,11.0089821 19.2911161,11.9467765 C19.2911161,12.884288 20.0486525,13.6446542 20.9836171,13.6446542 L27.4613034,13.6446542 L27.4613034,15.3595106 C27.4613034,16.7042297 25.7393725,17.8044544 23.6345701,17.8044544 L8.42271827,17.8044544 C6.31791594,17.8044544 4.59598502,16.7042297 4.59598502,15.3595106 L4.59598502,5.64765044 C4.59598502,4.30293134 6.31791594,3.20270662 8.42271827,3.20270662 L15.7374582,3.20270662 C16.5926226,3.20270662 17.2859226,2.50685976 17.2859226,1.64914856 C17.2859226,0.79115439 16.5926226,0.0955905119 15.7374582,0.0955905119 L7.95297212,0.0955905119 C3.5789563,0.0955905119 0.000113191843,2.38772534 0.000113191843,5.18922347 L0.000113191843,15.5802347 C0.000113191843,18.3817328 3.5789563,20.6738677 7.95297212,20.6738677 L24.177325,20.6738677 C28.5513408,20.6738677 32.1304669,18.3817328 32.1304669,15.5802347" id="Fill-1" fill="#FFFFFF"></path>
                        <path d="M41.2678785,15.4527807 L41.2678785,9.81582688 C41.2678785,8.47110778 43.2756188,7.37088306 45.729901,7.37088306 L56.0292268,7.37088306 C58.4835089,7.37088306 60.4912493,8.47110778 60.4912493,9.81582688 L60.4912493,15.4527807 C60.4912493,16.7974998 58.4835089,17.8977245 56.0292268,17.8977245 L45.729901,17.8977245 C43.2756188,17.8977245 41.2678785,16.7974998 41.2678785,15.4527807 M36.8593392,9.78186933 L36.8593392,15.4867382 C36.8593392,18.4002963 40.9602797,20.7841165 45.9726975,20.7841165 L55.7867133,20.7841165 C60.7988481,20.7841165 64.8997886,18.4002963 64.8997886,15.4867382 L64.8997886,9.78186933 C64.8997886,6.86831128 60.7988481,4.48449105 55.7867133,4.48449105 L45.9726975,4.48449105 C40.9602797,4.48449105 36.8593392,6.86831128 36.8593392,9.78186933" id="Fill-3" fill="#FFFFFF"></path>
                        <g id="Group-7">
                            <mask id="mask-2" fill="white">
                                <use xlink:href="#path-1"></use>
                            </mask>
                            <g id="Clip-6"></g>
                            <path d="M74.2803079,10.2488423 L74.2803079,2.94796837 L84.6305701,2.94796837 L93.5200916,2.94796837 C95.7307283,2.94796837 97.5392509,3.9703737 97.5392509,5.22001165 L97.5392509,7.976799 C97.5392509,9.22643695 95.7307283,10.2488423 93.5200916,10.2488423 L84.6305701,10.2488423 L74.2803079,10.2488423 Z M69.5262505,3.2875439 L69.5262505,19.4343604 C69.5262505,20.2187799 70.1680483,20.8605776 70.9524677,20.8605776 L72.8540907,20.8605776 C73.6385102,20.8605776 74.2803079,20.2187799 74.2803079,19.4343604 L74.2803079,13.4748098 L78.4401082,13.4748098 L84.6305701,13.4748098 L92.7849105,13.4748098 C97.9391011,13.4748098 102.156063,11.0909896 102.156063,8.17743154 L102.156063,5.35895464 C102.156063,2.44539659 97.9391011,0.0615763629 92.7849105,0.0615763629 L78.4401082,0.0615763629 L70.9524677,0.0615763629 C70.1680483,0.0615763629 69.5262505,0.703374116 69.5262505,1.48779359 L69.5262505,3.2875439 Z" id="Fill-5" fill="#FFFFFF" mask="url(#mask-2)"></path>
                        </g>
                        <path d="M106.132776,9.78184103 L106.132776,13.7294066 L106.132776,15.4867099 L106.132776,19.3496646 C106.132776,20.1338011 106.774573,20.7755988 107.558993,20.7755988 L109.115098,20.7755988 C109.899517,20.7755988 110.541315,20.1338011 110.541315,19.3496646 L110.541315,15.4527524 L110.541315,13.7294066 L110.541315,9.81579859 C110.541315,8.47107948 112.549055,7.37085476 115.003337,7.37085476 L118.270337,7.37085476 C119.069189,7.37085476 119.716929,6.72452934 119.716929,5.92765876 C119.716929,5.1305052 119.069189,4.48446275 118.270337,4.48446275 L115.245851,4.48446275 C110.233716,4.48446275 106.132776,6.86828298 106.132776,9.78184103" id="Fill-8" fill="#FFFFFF"></path>
                        <path d="M127.248403,15.4527807 L127.248403,9.81582688 C127.248403,8.47110778 129.256143,7.37088306 131.710425,7.37088306 L142.009751,7.37088306 C144.464033,7.37088306 146.471774,8.47110778 146.471774,9.81582688 L146.471774,15.4527807 C146.471774,16.7974998 144.464033,17.8977245 142.009751,17.8977245 L131.710425,17.8977245 C129.256143,17.8977245 127.248403,16.7974998 127.248403,15.4527807 M122.839864,9.78186933 L122.839864,15.4867382 C122.839864,18.4002963 126.940804,20.7841165 131.952939,20.7841165 L141.767238,20.7841165 C146.779372,20.7841165 150.880313,18.4002963 150.880313,15.4867382 L150.880313,9.78186933 C150.880313,6.86831128 146.779372,4.48449105 141.767238,4.48449105 L131.952939,4.48449105 C126.940804,4.48449105 122.839864,6.86831128 122.839864,9.78186933" id="Fill-10" fill="#FFFFFF"></path>
                        <mask id="mask-4" fill="white">
                            <use xlink:href="#path-3"></use>
                        </mask>
                        <g id="Clip-13"></g>
                        <polygon id="Fill-12" fill="#00ADEF" mask="url(#mask-4)" points="82.5960882 26.3171036 64.0892218 26.3171036 64.0892218 39.9001248 82.5960882 39.9001248"></polygon>
                        <polygon id="Fill-14" fill="#00ADEF" mask="url(#mask-4)" points="86.9086975 39.9001248 105.415564 39.9001248 105.415564 26.3171036 86.9086975 26.3171036"></polygon>
                        <polygon id="Fill-15" fill="#0C4CA3" mask="url(#mask-4)" points="109.320682 39.9001248 127.827549 39.9001248 127.827549 26.3171036 109.320682 26.3171036"></polygon>
                        <polygon id="Fill-16" fill="#FFFFFF" mask="url(#mask-4)" points="132.140158 39.9001248 150.647025 39.9001248 150.647025 26.3171036 132.140158 26.3171036"></polygon>
                    </g>
                </g>
            </g>
        </g>
    </g>
</svg>